<svg xmlns="http://www.w3.org/2000/svg" data-name="Layer 1" viewBox="0 0 512 512"><path fill="#ededed" d="M81.498 111.463v365.393a11.045 11.045 0 0 0 5.01 9.25l23.851 15.56a11.05 11.05 0 0 0 12.076 0l22.816-14.888a11.05 11.05 0 0 1 12.076 0l22.82 14.888a11.05 11.05 0 0 0 12.076 0l22.821-14.889a11.05 11.05 0 0 1 12.075 0l22.827 14.89a11.05 11.05 0 0 0 12.074 0l22.827-14.89a11.05 11.05 0 0 1 12.074 0l22.829 14.89a11.05 11.05 0 0 0 12.074 0l22.828-14.89a11.05 11.05 0 0 1 12.074-.001l22.833 14.893a11.05 11.05 0 0 0 12.073 0l23.86-15.562a11.045 11.045 0 0 0 5.01-9.252V111.464a30 30 0 0 0-30-30H111.498a30 30 0 0 0-30 30Z"/><path fill="#e1e1e3" d="M400.502 81.463h-45a30 30 0 0 1 30 30v365.392a11.045 11.045 0 0 1-5.01 9.251l-7.397 4.824 16.464 10.738a11.048 11.048 0 0 0 12.073 0l23.86-15.562a11.045 11.045 0 0 0 5.01-9.25V111.462a30 30 0 0 0-30-30Z"/><rect width="200.002" height="48" x="141.498" y="141.463" fill="#fff" rx="15"/><circle cx="401.04" cy="110.96" r="103.46" fill="#fddd5a"/><path fill="#fed030" d="M401.04 7.5a104.288 104.288 0 0 0-15 1.086 103.468 103.468 0 0 1 0 204.748 103.463 103.463 0 1 0 15-205.834Z"/><circle cx="401.04" cy="166.492" r="16.729" fill="#2370b5"/><path fill="#1067ae" d="M401.04 149.762a16.693 16.693 0 0 0-5.242.85 16.719 16.719 0 0 1 0 31.76 16.726 16.726 0 1 0 5.242-32.61Z"/><path fill="#227fc0" d="M448.932 155.006a171.353 171.353 0 0 1-95.784 0l8.312-49.431a40.136 40.136 0 0 1 39.58-33.481 40.136 40.136 0 0 1 39.58 33.48Z"/><path fill="#2370b5" d="M440.62 105.575a40.136 40.136 0 0 0-39.58-33.481 40.205 40.205 0 0 0-7.5.709 40.141 40.141 0 0 1 32.08 32.772l6.37 37.88a12.704 12.704 0 0 1-9.844 14.528 171.935 171.935 0 0 1-28.606 3.668 171.327 171.327 0 0 0 55.392-6.645Z"/><path fill="#3c3b41" d="M141.498 296.557h68.223a7.5 7.5 0 0 0 0-15h-68.223a7.5 7.5 0 0 0 0 15Zm113.223 60H141.498a7.5 7.5 0 0 0 0 15h113.223a7.5 7.5 0 1 0 0-15Zm-45 45h-68.223a7.5 7.5 0 0 0 0 15h68.223a7.5 7.5 0 0 0 0-15Zm238.296-297.225a47.49 47.49 0 0 0-26.912-35.337 24.23 24.23 0 1 0-40.13 0 47.493 47.493 0 0 0-26.912 35.337l-8.311 49.43a7.5 7.5 0 0 0 5.3 8.445 179.226 179.226 0 0 0 25.788 5.476 24.229 24.229 0 0 0 48.4 0 179.2 179.2 0 0 0 25.787-5.476 7.5 7.5 0 0 0 5.301-8.444ZM401.04 46.2a9.227 9.227 0 0 1 .87 18.414c-.29-.005-.579-.02-.87-.02s-.58.015-.87.02a9.227 9.227 0 0 1 .87-18.414Zm0 129.52a9.242 9.242 0 0 1-8.849-6.619c2.949.147 5.898.247 8.849.247 2.95 0 5.9-.1 8.848-.247a9.242 9.242 0 0 1-8.848 6.62Zm15.133-22.08c-.108.01-.215.018-.323.033a163.382 163.382 0 0 1-29.622 0c-.104-.015-.207-.022-.31-.032a163.944 163.944 0 0 1-24.245-4.104l7.182-42.716a32.535 32.535 0 0 1 30.899-27.197q.639.033 1.286.034.647 0 1.286-.034a32.531 32.531 0 0 1 30.898 27.196l7.182 42.717a163.88 163.88 0 0 1-24.233 4.103ZM401.04 0a111.148 111.148 0 0 0-104.61 73.963H111.498a37.542 37.542 0 0 0-37.5 37.5v365.394a18.485 18.485 0 0 0 8.412 15.53l23.852 15.561a18.554 18.554 0 0 0 20.271 0l22.818-14.89a3.553 3.553 0 0 1 3.878 0l22.82 14.888a18.552 18.552 0 0 0 20.271.002l22.823-14.89a3.551 3.551 0 0 1 3.878 0l22.827 14.89a18.55 18.55 0 0 0 20.27 0l22.826-14.89a3.555 3.555 0 0 1 3.88 0l22.83 14.892a18.56 18.56 0 0 0 20.268 0l22.828-14.892a3.553 3.553 0 0 1 3.878 0l22.834 14.893a18.56 18.56 0 0 0 20.268 0l23.859-15.563a18.484 18.484 0 0 0 8.413-15.532V215.582A110.96 110.96 0 0 0 401.04 0ZM296.784 148.96a110.994 110.994 0 0 0 19.055 33H156.5a7.508 7.508 0 0 1-7.5-7.5v-18a7.508 7.508 0 0 1 7.5-7.5Zm126.218 327.896a3.533 3.533 0 0 1-1.608 2.968l-23.859 15.563a3.55 3.55 0 0 1-3.878 0l-22.835-14.894a18.555 18.555 0 0 0-20.267.002l-22.827 14.891a3.55 3.55 0 0 1-3.88.001l-22.83-14.892a18.55 18.55 0 0 0-20.269 0l-22.827 14.891a3.555 3.555 0 0 1-3.879 0l-22.826-14.89a18.55 18.55 0 0 0-20.27 0l-22.822 14.89a3.55 3.55 0 0 1-3.88-.001l-22.82-14.889a18.554 18.554 0 0 0-20.272.001l-22.817 14.889a3.555 3.555 0 0 1-3.879 0l-23.85-15.56a3.534 3.534 0 0 1-1.609-2.97V111.464a22.526 22.526 0 0 1 22.5-22.5h180.776a111.316 111.316 0 0 0 .21 44.997H156.5a22.526 22.526 0 0 0-22.5 22.5v18a22.526 22.526 0 0 0 22.5 22.5h170a22.486 22.486 0 0 0 4.037-.38 110.89 110.89 0 0 0 92.465 23.154ZM401.04 206.92A95.96 95.96 0 1 1 497 110.96a96.07 96.07 0 0 1-95.96 95.96Zm-20.691 37.137a7.5 7.5 0 0 0-7.5-7.5H329.72a7.5 7.5 0 0 0 0 15h7.842a16.034 16.034 0 0 1 14.15 8.523h-21.992a7.5 7.5 0 0 0 0 15h21.993a16.034 16.034 0 0 1-14.151 8.525h-7.842a7.5 7.5 0 0 0-5.424 12.68l31.366 32.84a7.5 7.5 0 1 0 10.848-10.362l-20.399-21.356a31.141 31.141 0 0 0 21.55-22.327h5.187a7.5 7.5 0 0 0 0-15h-5.184a30.845 30.845 0 0 0-3.547-8.523h8.73a7.5 7.5 0 0 0 7.5-7.5Zm-125.628-7.5H141.498a7.5 7.5 0 0 0 0 15h113.223a7.5 7.5 0 1 0 0-15Zm125.628 127.5a7.5 7.5 0 0 0-7.5-7.5H329.72a7.5 7.5 0 0 0 0 15h7.842a16.034 16.034 0 0 1 14.15 8.523h-21.992a7.5 7.5 0 0 0 0 15h21.993a16.034 16.034 0 0 1-14.151 8.525h-7.842a7.5 7.5 0 0 0-5.424 12.68l31.366 32.84a7.5 7.5 0 1 0 10.848-10.362l-20.399-21.356a31.141 31.141 0 0 0 21.55-22.327h5.187a7.5 7.5 0 0 0 0-15h-5.184a30.845 30.845 0 0 0-3.547-8.523h8.73a7.5 7.5 0 0 0 7.5-7.5Z"/></svg>